<?xml version="1.0" encoding="UTF-8"?>
<svg id="Layer_1" data-name="Layer 1" xmlns="http://www.w3.org/2000/svg" xmlns:xlink="http://www.w3.org/1999/xlink" viewBox="0 0 500 500">
  <defs>
    <style>
      .cls-1 {
        fill: url(#linear-gradient);
        stroke-width: 0px;
      }
    </style>
    <linearGradient id="linear-gradient" x1="349.31" y1="351.5" x2="131.03" y2="156.87" gradientUnits="userSpaceOnUse">
      <stop offset="0" stop-color="#7b2bf9"/>
      <stop offset="1" stop-color="#0097ff"/>
    </linearGradient>
  </defs>
  <path class="cls-1" d="m408.98,150.34c-22.29.42-43.71,3.01-64.05,7.64-24.07-24.87-57.78-40.36-95.13-40.36-73.12,0-132.4,59.28-132.4,132.4,0,37.34,15.48,71.04,40.34,95.11-5.79,25.4-8.54,53.06-7.88,82.84.02,1.08,1.62,1.12,1.69.04,1.79-26.08,7.38-50.9,15.47-74.7q-.07.2,0,0c13.17-37.53,33.9-71.5,60.37-100.08h0c12.88-15.01,19.26-23.26,19.26-37.28,0-12.12-11.32-35.66-26.78-48.65,37.76,5.13,48.87,22.86,66.7,25.28,15.82,2.15,28.72-5.87,53.39-8.13-16.68,18.03-20.41,31.69-21.63,48.38-.88,12.06,10.82,27.04,9.65,68.13-12.05-24.62-29.71-44.63-52.02-44.63-18.35,0-37.28,2.55-52.02,23.88h0c-21.97,26.21-36.09,53.2-44.64,81.87,20.41,12.88,44.58,20.35,70.5,20.35,73.12,0,132.4-59.28,132.4-132.4,0-29.57-9.7-56.87-26.08-78.9,24.51-10.39,43.72-16.41,53.13-19.11.96-.27.73-1.68-.27-1.66Z"/>
</svg>